<svg width="1920" height="1080" viewBox="0 0 1920 1080" fill="none" xmlns="http://www.w3.org/2000/svg">
<path opacity="0.4" d="M925.36 210.33L742.026 278.996C707.026 292.33 678.359 333.663 678.359 371.33V641.33C678.359 668.33 696.026 703.997 717.693 719.997L901.027 856.997C933.36 881.33 986.36 881.33 1018.69 856.997L1202.03 719.997C1223.69 703.663 1241.36 668.33 1241.36 641.33V371.33C1241.36 333.996 1212.69 292.329 1177.69 279.329L994.36 210.663C975.693 203.33 944.36 203.33 925.36 210.33Z" fill="#75818F"/>
<path d="M1043.33 490C1043.33 444 1006 406.667 960 406.667C914 406.667 876.667 444 876.667 490C876.667 527.333 901.333 558.333 935 569V656.667C935 670.333 946.333 681.667 960 681.667C973.667 681.667 985 670.333 985 656.667V569C1018.67 558.333 1043.33 527.333 1043.33 490Z" fill="black"/>
</svg>
